{
  "asset": {
    "version": "2.0",
    "generator": "Sketchup glTF Exporter v1.2.6 by Centaur"
  },
  "scene": 0,
  "scenes": [
    {
      "nodes": [
        0
      ]
    }
  ],
  "samplers": [
    {
    }
  ],
  "nodes": [
    {
      "name": "root",
      "children": [
        1,
        2,
        3,
        4,
        5
      ],
      "mesh": 5
    },
    {
      "name": "6L",
      "mesh": 0
    },
    {
      "name": "7L",
      "mesh": 1
    },
    {
      "name": "6R",
      "mesh": 2
    },
    {
      "name": "7R",
      "mesh": 3
    },
    {
      "name": "A17",
      "mesh": 4
    }
  ],
  "materials": [
    {
      "pbrMetallicRoughness": {
        "baseColorFactor": [
          0.4045,
          0.4045,
          0.4045,
          1.0
        ],
        "metallicFactor": 0.1,
        "roughnessFactor": 0.9
      },
      "name": "0132_LightGray"
    },
    {
      "pbrMetallicRoughness": {
        "baseColorFactor": [
          0.006,
          0.006,
          0.1636,
          1.0
        ],
        "metallicFactor": 0.1,
        "roughnessFactor": 0.9
      },
      "name": "0107_MidnightBlue"
    },
    {
      "pbrMetallicRoughness": {
        "baseColorFactor": [
          0.2195,
          0.2195,
          0.2195,
          0.5
        ],
        "metallicFactor": 0.1,
        "roughnessFactor": 0.9
      },
      "name": "Translucent Glass Gray",
      "doubleSided": true,
      "alphaMode": "BLEND"
    },
    {
      "pbrMetallicRoughness": {
        "baseColorFactor": [
          0.1275,
          0.3066,
          0.8513,
          0.5
        ],
        "metallicFactor": 0.1,
        "roughnessFactor": 0.9
      },
      "name": "Translucent Glass Blue",
      "doubleSided": true,
      "alphaMode": "BLEND"
    },
    {
      "pbrMetallicRoughness": {
        "baseColorFactor": [
          0.0,
          0.0,
          0.1332,
          1.0
        ],
        "metallicFactor": 0.1,
        "roughnessFactor": 0.9
      },
      "name": "Color I08"
    },
    {
      "pbrMetallicRoughness": {
        "baseColorFactor": [
          0.7227,
          0.0037,
          0.0415,
          1.0
        ],
        "metallicFactor": 0.1,
        "roughnessFactor": 0.9
      },
      "name": "0019_Crimson"
    },
    {
      "pbrMetallicRoughness": {
        "baseColorFactor": [
          0.2176,
          0.2176,
          0.2176,
          1.0
        ],
        "metallicFactor": 0.1,
        "roughnessFactor": 0.9
      },
      "name": "default material",
      "doubleSided": true
    }
  ],
  "meshes": [
    {
      "primitives": [
        {
          "attributes": {
            "POSITION": 0,
            "NORMAL": 1
          },
          "indices": 2,
          "mode": 4,
          "material": 6
        }
      ]
    },
    {
      "primitives": [
        {
          "attributes": {
            "POSITION": 0,
            "NORMAL": 1
          },
          "indices": 3,
          "mode": 4,
          "material": 6
        }
      ]
    },
    {
      "primitives": [
        {
          "attributes": {
            "POSITION": 0,
            "NORMAL": 1
          },
          "indices": 4,
          "mode": 4,
          "material": 6
        }
      ]
    },
    {
      "primitives": [
        {
          "attributes": {
            "POSITION": 0,
            "NORMAL": 1
          },
          "indices": 5,
          "mode": 4,
          "material": 6
        }
      ]
    },
    {
      "primitives": [
        {
          "attributes": {
            "POSITION": 0,
            "NORMAL": 1
          },
          "indices": 6,
          "mode": 4,
          "material": 6
        }
      ]
    },
    {
      "primitives": [
        {
          "attributes": {
            "POSITION": 0,
            "NORMAL": 1
          },
          "indices": 7,
          "mode": 4,
          "material": 0
        },
        {
          "attributes": {
            "POSITION": 0,
            "NORMAL": 1
          },
          "indices": 8,
          "mode": 4,
          "material": 1
        },
        {
          "attributes": {
            "POSITION": 0,
            "NORMAL": 1
          },
          "indices": 9,
          "mode": 4,
          "material": 2
        },
        {
          "attributes": {
            "POSITION": 0,
            "NORMAL": 1
          },
          "indices": 10,
          "mode": 4,
          "material": 3
        },
        {
          "attributes": {
            "POSITION": 0,
            "NORMAL": 1
          },
          "indices": 11,
          "mode": 4,
          "material": 4
        },
        {
          "attributes": {
            "POSITION": 0,
            "NORMAL": 1
          },
          "indices": 12,
          "mode": 4,
          "material": 5
        },
        {
          "attributes": {
            "POSITION": 0,
            "NORMAL": 1
          },
          "indices": 13,
          "mode": 4,
          "material": 6
        }
      ]
    }
  ],
  "accessors": [
    {
      "bufferView": 0,
      "componentType": 5126,
      "count": 1453,
      "type": "VEC3",
      "min": [
        0.0,
        -2.275405999283774e-15,
        -37.160199999999996
      ],
      "max": [
        4.470400000000009,
        2.6162,
        1.0949322101816656e-15
      ]
    },
    {
      "bufferView": 1,
      "componentType": 5126,
      "count": 1453,
      "type": "VEC3",
      "min": [
        -1.0,
        -1.0,
        -1.0
      ],
      "max": [
        1.0,
        1.0,
        1.0
      ]
    },
    {
      "bufferView": 2,
      "componentType": 5123,
      "count": 924,
      "type": "SCALAR"
    },
    {
      "bufferView": 2,
      "componentType": 5123,
      "count": 132,
      "type": "SCALAR",
      "byteOffset": 1848
    },
    {
      "bufferView": 2,
      "componentType": 5123,
      "count": 1284,
      "type": "SCALAR",
      "byteOffset": 2112
    },
    {
      "bufferView": 2,
      "componentType": 5123,
      "count": 492,
      "type": "SCALAR",
      "byteOffset": 4680
    },
    {
      "bufferView": 2,
      "componentType": 5123,
      "count": 372,
      "type": "SCALAR",
      "byteOffset": 5664
    },
    {
      "bufferView": 2,
      "componentType": 5123,
      "count": 219,
      "type": "SCALAR",
      "byteOffset": 6408
    },
    {
      "bufferView": 2,
      "componentType": 5123,
      "count": 45,
      "type": "SCALAR",
      "byteOffset": 6846
    },
    {
      "bufferView": 2,
      "componentType": 5123,
      "count": 123,
      "type": "SCALAR",
      "byteOffset": 6936
    },
    {
      "bufferView": 2,
      "componentType": 5123,
      "count": 78,
      "type": "SCALAR",
      "byteOffset": 7182
    },
    {
      "bufferView": 2,
      "componentType": 5123,
      "count": 12,
      "type": "SCALAR",
      "byteOffset": 7338
    },
    {
      "bufferView": 2,
      "componentType": 5123,
      "count": 21,
      "type": "SCALAR",
      "byteOffset": 7362
    },
    {
      "bufferView": 2,
      "componentType": 5123,
      "count": 6,
      "type": "SCALAR",
      "byteOffset": 7404
    }
  ],
  "bufferViews": [
    {
      "buffer": 0,
      "byteLength": 17436,
      "target": 34962,
      "byteStride": 12
    },
    {
      "buffer": 0,
      "byteOffset": 17436,
      "byteLength": 17436,
      "target": 34962,
      "byteStride": 12
    },
    {
      "buffer": 0,
      "byteOffset": 34872,
      "byteLength": 7416,
      "target": 34963
    }
  ],
  "buffers": [
    {
      "uri": "data:application/octet-stream;base64,",
      "byteLength": 42288
    }
  ]
}